<?xml version="1.0" standalone="no"?>
<!DOCTYPE svg PUBLIC "-//W3C//DTD SVG 20010904//EN"
 "http://www.w3.org/TR/2001/REC-SVG-20010904/DTD/svg10.dtd">
<svg version="1.0" xmlns="http://www.w3.org/2000/svg"
 width="48.000000pt" height="48.000000pt" viewBox="0 0 48.000000 48.000000"
 preserveAspectRatio="xMidYMid meet">

<g transform="translate(0.000000,48.000000) scale(0.100000,-0.100000)"
fill="#000000" stroke="none">
<path d="M224 469 c-10 -17 13 -36 27 -22 12 12 4 33 -11 33 -5 0 -12 -5 -16
-11z"/>
<path d="M124 429 c-10 -17 13 -36 27 -22 12 12 4 33 -11 33 -5 0 -12 -5 -16
-11z"/>
<path d="M324 429 c-10 -17 13 -36 27 -22 12 12 4 33 -11 33 -5 0 -12 -5 -16
-11z"/>
<path d="M185 375 c-50 -49 -15 -135 55 -135 41 0 80 39 80 80 0 41 -39 80
-80 80 -19 0 -40 -9 -55 -25z m80 -55 c0 -18 -6 -26 -23 -28 -13 -2 -25 3 -28
12 -10 26 4 48 28 44 17 -2 23 -10 23 -28z"/>
<path d="M84 329 c-10 -17 13 -36 27 -22 12 12 4 33 -11 33 -5 0 -12 -5 -16
-11z"/>
<path d="M364 329 c-10 -17 13 -36 27 -22 12 12 4 33 -11 33 -5 0 -12 -5 -16
-11z"/>
<path d="M51 241 c-28 -52 0 -191 40 -199 24 -4 30 23 14 55 -8 15 -15 45 -15
66 0 35 2 38 23 32 40 -13 97 -48 97 -62 0 -16 -22 -17 -38 -1 -9 9 -16 9 -29
-4 -20 -20 -10 -36 43 -69 41 -25 64 -19 64 15 0 54 42 98 118 121 20 6 22 3
22 -30 0 -19 -6 -51 -14 -69 -15 -37 -7 -62 18 -53 40 15 63 160 33 201 -13
17 -17 18 -69 2 -30 -8 -67 -25 -83 -37 l-27 -22 -62 30 c-87 43 -122 49 -135
24z"/>
<path d="M300 108 c-23 -37 -22 -61 1 -66 19 -4 63 64 55 84 -9 24 -36 15 -56
-18z"/>
</g>
</svg>
